:version 1.10
:name ASF
:units
  mass 1
  length 1
  angle deg
:documentation
  ASF file generated by Kaydara
:root
  axis xyz
  order  tx ty tz rx ry rz
  position 0 0 0
  orientation 0 0 0
:bonedata
  begin
    id 1
    name RightUpLegDummy
    direction -1 2.30186e-007 8.31532e-007
    length 4.04083
    axis 0 0 0 xyz
  end
  begin
    id 2
    name RightUpLeg
    direction -0.000919234 -0.999985 0.00544864
    length 17.4221
    axis -3.80308 -0.00076134 -0.0523649 xyz
    dof rx ry rz
  end
  begin
    id 3
    name RightLeg
    direction -0.000919271 -0.999984 -0.00555045
    length 17.1239
    axis 4.00314 0.0181274 -0.183583 xyz
    dof rx ry rz
  end
  begin
    id 4
    name RightFoot
    direction -2.57843e-005 -4.04509e-007 1
    length 6.72091
    axis 8.18909e-005 -0.122003 -0.403008 xyz
    dof rx ry rz
  end
  begin
    id 5
    name RightToes
    direction 0.00116825 -0.014069 0.9999
    length 3.85082
    axis 0.000514414 0.540638 -0.356797 xyz
    dof rx ry rz
  end
  begin
    id 6
    name SpineDummy
    direction 0.0168869 0.966876 -0.254689
    length 6.99894
    axis 0 0 0 xyz
  end
  begin
    id 7
    name Spine
    direction -0.0132008 0.999903 0.00446247
    length 11.1999
    axis -0.00148109 0.00725429 0.756411 xyz
    dof rx ry rz
  end
  begin
    id 8
    name Spine1
    direction 0 0 0
    length 0
    axis -0.000934958 0.0245693 1.46543 xyz
    dof rx ry rz
  end
  begin
    id 9
    name HEadDummy
    direction -0.0255732 0.999672 0.00128215
    length 3.43865
    axis -0.000934958 0.0245693 1.46543 xyz
  end
  begin
    id 10
    name HEad
    direction -0.0472656 0.980052 0.19304
    length 5.12695
    axis -0.000934954 0.0245693 1.46543 xyz
    dof rx ry rz
  end
  begin
    id 11
    name LeftShoulder1Dummy
    direction 0.953098 0.301717 -0.023914
    length 3.68488
    axis -0.000934958 0.0245693 1.46543 xyz
  end
  begin
    id 12
    name LeftShoulder1
    direction 0.962466 0.271167 0.0112566
    length 3.13809
    axis -0.000934958 0.0245693 1.46543 xyz
    dof rx ry rz
  end
  begin
    id 13
    name LeftArm
    direction 0.999943 0.00455037 -0.00961766
    length 11.3419
    axis -23.1648 0.685459 1.22814 xyz
    dof rx ry rz
  end
  begin
    id 14
    name LeftForeArm
    direction 0.999332 0.0131969 0.0340885
    length 8.70632
    axis -9.90633 0.618216 0.0826942 xyz
    dof rx ry rz
  end
  begin
    id 15
    name LeftHand
    direction 0.994373 -0.0366703 0.0993905
    length 5.32135
    axis 0.00675269 0.680415 0.445699 xyz
    dof rx ry rz
  end
  begin
    id 16
    name RightShoulderDummy
    direction -0.967298 0.252589 -0.0230903
    length 3.68488
    axis -0.000934958 0.0245693 1.46543 xyz
  end
  begin
    id 17
    name RightShoulder
    direction -0.975062 0.221602 0.0120823
    length 3.13809
    axis 0.216257 0.0246515 1.45863 xyz
    dof rx ry rz
  end
  begin
    id 18
    name RightArm
    direction -0.99886 -0.00851186 -0.0469687
    length 10.3947
    axis -23.196 0.23503 -0.532632 xyz
    dof rx ry rz
  end
  begin
    id 19
    name RightForeArm
    direction -0.99909 0.00114866 0.0426317
    length 8.68355
    axis -9.91764 -0.134943 0.610517 xyz
    dof rx ry rz
  end
  begin
    id 20
    name RightHand
    direction -0.992888 -0.0489538 0.10852
    length 5.28593
    axis -0.00275396 -0.197403 0.246414 xyz
    dof rx ry rz
  end
  begin
    id 21
    name LeftUpLegDummy
    direction 1 -2.30186e-007 -8.31532e-007
    length 4.04083
    axis 0 0 0 xyz
  end
  begin
    id 22
    name LeftUpLeg
    direction -0.000920097 -1 2.79241e-006
    length 17.4221
    axis -3.48782 0.00143434 -0.0532288 xyz
    dof rx ry rz
  end
  begin
    id 23
    name LeftLeg
    direction -0.000920097 -1 2.7912e-006
    length 17.1239
    axis 3.68162 -0.00806512 -0.0529896 xyz
    dof rx ry rz
  end
  begin
    id 24
    name LeftFoot
    direction -2.57845e-005 -3.987e-007 1
    length 6.72091
    axis 3.02372e-005 -0.00147829 -0.214229 xyz
    dof rx ry rz
  end
  begin
    id 25
    name LeftToes
    direction 0.00813577 -0.00488255 0.999955
    length 3.85048
    axis 3.89895e-005 -0.0014783 -0.214229 xyz
    dof rx ry rz
  end
:hierarchy
  begin
    root RightUpLegDummy SpineDummy LeftUpLegDummy
    RightUpLegDummy RightUpLeg
    RightUpLeg RightLeg
    RightLeg RightFoot
    RightFoot RightToes
    SpineDummy Spine
    Spine Spine1
    Spine1 HEadDummy LeftShoulder1Dummy RightShoulderDummy
    HEadDummy HEad
    LeftShoulder1Dummy LeftShoulder1
    LeftShoulder1 LeftArm
    LeftArm LeftForeArm
    LeftForeArm LeftHand
    RightShoulderDummy RightShoulder
    RightShoulder RightArm
    RightArm RightForeArm
    RightForeArm RightHand
    LeftUpLegDummy LeftUpLeg
    LeftUpLeg LeftLeg
    LeftLeg LeftFoot
    LeftFoot LeftToes
  end

:SAMPLES-PER-SECOND 30
:FULLY-SPECIFIED
:DEGREES
47
root  -12.1631 34.5766 -18.2879 -170.125 0.921326 179.738
RightUpLeg  -8.22419 -13.7455 -0.134687
RightLeg  6.48813 -1.45477 -0.0727135
RightFoot  2.04255 0.0113773 0.0905411
RightToes  -22.3105 -0.092566 -0.194822
Spine  -3.14183 0.0172302 0.239772
Spine1  -6.37461 0.14089 1.04783
HEad  -66.8459 0.623343 5.87326
LeftShoulder1  -1.94126e-019 -3.10601e-018 -2.51263e-017
LeftArm  -14.027 26.6289 -81.9744
LeftForeArm  32.0562 -15.2466 -2.45162
LeftHand  -0.392014 -0.694502 7.26162
RightShoulder  -4.96962e-017 0 -2.36833e-017
RightArm  -28.6758 -24.6255 76.6366
RightForeArm  57.0808 13.5929 1.3084
RightHand  -0.339202 -1.20186 -9.3307
LeftUpLeg  -8.26667 2.75747 0.828894
LeftLeg  6.28515 13.5167 0.608006
LeftFoot  3.4209 -0.0186078 0.946542
LeftToes  -17.9418 1.48347e-006 1.01831e-007
48
root  -12.1599 34.5783 -18.2832 -170.132 0.933716 179.737
RightUpLeg  -8.21387 -13.7267 -0.129332
RightLeg  6.46119 -1.46736 -0.0699824
RightFoot  2.05334 0.0113958 0.0902769
RightToes  -22.2658 -0.092153 -0.194822
Spine  -3.14123 0.00972344 0.239299
Spine1  -6.37438 0.126284 1.0476
HEad  -66.6748 0.460231 5.83765
LeftShoulder1  -1.94126e-019 -3.10601e-018 -2.51263e-017
LeftArm  -13.9813 26.6469 -81.9735
LeftForeArm  32.0417 -15.2564 -2.45114
LeftHand  -0.391814 -0.664732 7.26172
RightShoulder  -4.96962e-017 0 -2.36833e-017
RightArm  -28.6553 -24.6051 76.5687
RightForeArm  57.061 13.6232 1.30111
RightHand  -0.341413 -1.15392 -9.25396
LeftUpLeg  -8.25281 2.77183 0.834791
LeftLeg  6.25519 13.5105 0.600723
LeftFoot  3.43422 -0.0187883 0.949347
LeftToes  -17.8607 1.48347e-006 1.01831e-007
49
root  -12.156 34.5806 -18.2792 -170.137 0.945435 179.737
RightUpLeg  -8.19962 -13.7142 -0.122623
RightLeg  6.42627 -1.46803 -0.0691313
RightFoot  2.07974 0.0114119 0.0900478
RightToes  -22.2856 -0.0917199 -0.194822
Spine  -3.14085 -0.0021117 0.23898
Spine1  -6.3747 0.102796 1.04771
HEad  -66.5153 0.463128 5.85449
LeftShoulder1  -1.94126e-019 -3.10601e-018 -2.51263e-017
LeftArm  -13.9425 26.6543 -81.9764
LeftForeArm  32.0712 -15.2 -2.44142
LeftHand  -0.391233 -0.761738 7.27696
RightShoulder  -4.96962e-017 0 -2.36833e-017
RightArm  -28.6222 -24.583 76.4951
RightForeArm  57.0734 13.6616 1.29202
RightHand  -0.339077 -1.2 -9.33523
LeftUpLeg  -8.23424 2.77605 0.837349
LeftLeg  6.21896 13.5193 0.592628
LeftFoot  3.46425 -0.0192956 0.957232
LeftToes  -17.9092 1.48347e-006 1.01831e-007
50
root  -12.1535 34.5824 -18.2752 -170.14 0.963531 179.736
RightUpLeg  -8.1905 -13.6955 -0.116822
RightLeg  6.39649 -1.47006 -0.068464
RightFoot  2.10386 0.0114259 0.0898471
RightToes  -22.2936 -0.0912685 -0.194822
Spine  -3.14068 -0.0177461 0.238617
Spine1  -6.37547 0.0719385 1.04776
HEad  -66.3303 0.558869 5.86527
LeftShoulder1  -1.94126e-019 -3.10601e-018 -2.51263e-017
LeftArm  -13.9195 26.6639 -81.9893
LeftForeArm  32.0144 -15.1557 -2.43362
LeftHand  -0.387265 -0.658807 7.35471
RightShoulder  -4.96962e-017 0 -2.36833e-017
RightArm  -28.5382 -24.561 76.4103
RightForeArm  57.0244 13.6958 1.28439
RightHand  -0.340131 -1.1526 -9.29988
LeftUpLeg  -8.22431 2.82391 0.841567
LeftLeg  6.19273 13.4798 0.584806
LeftFoot  3.4693 -0.0192123 0.955938
LeftToes  -17.8438 1.48347e-006 1.01831e-007
51
root  -12.1491 34.5842 -18.2719 -170.14 0.98999 179.736
RightUpLeg  -8.1786 -13.7244 -0.109366
RightLeg  6.34843 -1.42316 -0.0650521
RightFoot  2.12917 0.0114384 0.0896678
RightToes  -22.2851 -0.0908009 -0.194822
Spine  -3.14068 -0.0275667 0.238008
Spine1  -6.37661 0.0520193 1.04736
HEad  -66.1698 0.664823 5.87964
LeftShoulder1  -1.94126e-019 -3.10601e-018 -2.51263e-017
LeftArm  -13.9078 26.6583 -81.9881
LeftForeArm  32.0773 -15.0713 -2.42053
LeftHand  -0.38562 -0.738205 7.32669
RightShoulder  -4.96962e-017 0 -2.36833e-017
RightArm  -28.4665 -24.5466 76.3209
RightForeArm  57.0072 13.7175 1.28015
RightHand  -0.342395 -1.11143 -9.2208
LeftUpLeg  -8.20979 2.84899 0.8455
LeftLeg  6.16086 13.4938 0.577953
LeftFoot  3.49727 -0.0197046 0.963589
LeftToes  -17.8994 1.48347e-006 1.01831e-007
52
root  -12.1454 34.5851 -18.2693 -170.14 1.00928 179.736
RightUpLeg  -8.17038 -13.7246 -0.104523
RightLeg  6.32064 -1.38946 -0.0628128
RightFoot  2.15181 0.01145 0.0895032
RightToes  -22.332 -0.090319 -0.194822
Spine  -3.14081 -0.0348128 0.236955
Spine1  -6.37803 0.0367188 1.0461
HEad  -66.0469 0.744816 5.88012
LeftShoulder1  -1.94126e-019 -3.10601e-018 -2.51263e-017
LeftArm  -13.9049 26.648 -82.0013
LeftForeArm  32.122 -15.0001 -2.41044
LeftHand  -0.381681 -0.749106 7.33674
RightShoulder  -4.96962e-017 0 -2.36833e-017
RightArm  -28.3992 -24.5387 76.2213
RightForeArm  57.015 13.6952 1.28674
RightHand  -0.339277 -1.12652 -9.33164
LeftUpLeg  -8.2016 2.84435 0.850534
LeftLeg  6.14186 13.5122 0.574349
LeftFoot  3.51777 -0.0200893 0.969568
LeftToes  -17.9202 1.48347e-006 1.01831e-007
53
root  -12.1415 34.5867 -18.2658 -170.14 1.0246 179.736
RightUpLeg  -8.16636 -13.7121 -0.0982255
RightLeg  6.29776 -1.38814 -0.0621979
RightFoot  2.1667 0.0114609 0.0893464
RightToes  -22.3326 -0.0898247 -0.194822
Spine  -3.14104 -0.0392539 0.235256
Spine1  -6.37964 0.0267766 1.04316
HEad  -65.9708 0.813942 5.85869
LeftShoulder1  -1.94126e-019 -3.10601e-018 -2.51263e-017
LeftArm  -13.8837 26.6405 -82.0145
LeftForeArm  32.1203 -15.0124 -2.41139
LeftHand  -0.374884 -0.735633 7.22245
RightShoulder  -4.96962e-017 0 -2.36833e-017
RightArm  -28.3227 -24.5435 76.1212
RightForeArm  56.9886 13.6863 1.28951
RightHand  -0.342175 -1.11545 -9.22848
LeftUpLeg  -8.19418 2.83864 0.854087
LeftLeg  6.12151 13.5349 0.570465
LeftFoot  3.54151 -0.0205367 0.976523
LeftToes  -17.8998 1.48347e-006 1.01831e-007
54
root  -12.1374 34.5888 -18.2629 -170.141 1.03392 179.737
RightUpLeg  -8.15894 -13.7113 -0.0902855
RightLeg  6.27601 -1.38541 -0.0617267
RightFoot  2.18009 0.0114719 0.0891905
RightToes  -22.2704 -0.0893198 -0.194822
Spine  -3.14133 -0.042152 0.232712
Spine1  -6.38134 0.0237673 1.03559
HEad  -65.9579 0.846076 5.87844
LeftShoulder1  -1.94126e-019 -3.10601e-018 -2.51263e-017
LeftArm  -13.8502 26.6322 -82.0365
LeftForeArm  32.1389 -15.0705 -2.41887
LeftHand  -0.374438 -0.75772 7.18996
RightShoulder  -4.96962e-017 0 -2.36833e-017
RightArm  -28.2611 -24.5597 76.0302
RightForeArm  56.9987 13.661 1.29567
RightHand  -0.341717 -1.11565 -9.24495
LeftUpLeg  -8.18308 2.84088 0.859847
LeftLeg  6.09395 13.5497 0.564617
LeftFoot  3.56624 -0.0209626 0.983143
LeftToes  -17.9422 1.48347e-006 1.01831e-007
55
root  -12.1322 34.5906 -18.261 -170.141 1.03249 179.738
RightUpLeg  -8.15026 -13.7194 -0.082968
RightLeg  6.25459 -1.3848 -0.0607931
RightFoot  2.18337 0.0114832 0.0890288
RightToes  -22.2003 -0.0888063 -0.194273
Spine  -3.14166 -0.0443321 0.227675
Spine1  -6.38305 0.0149387 1.02565
HEad  -65.949 0.849628 5.88166
LeftShoulder1  -1.94126e-019 -3.10601e-018 -2.51263e-017
LeftArm  -13.7856 26.6331 -82.0554
LeftForeArm  32.1003 -15.1559 -2.43073
LeftHand  -0.375682 -0.716494 7.12824
RightShoulder  -4.96962e-017 0 -2.36833e-017
RightArm  -28.2147 -24.5761 75.9562
RightForeArm  57.0374 13.6323 1.30215
RightHand  -0.340058 -1.17222 -9.30155
LeftUpLeg  -8.1708 2.85035 0.867487
LeftLeg  6.06378 13.5409 0.557182
LeftFoot  3.59291 -0.0213195 0.98869
LeftToes  -17.9142 1.48347e-006 1.01831e-007
56
root  -12.1261 34.5927 -18.259 -170.142 1.0211 179.739
RightUpLeg  -8.14398 -13.7404 -0.0692043
RightLeg  6.2332 -1.37332 -0.0612496
RightFoot  2.20797 0.0114954 0.0888543
RightToes  -22.2525 -0.0882861 -0.193762
Spine  -3.14198 -0.0461155 0.219282
Spine1  -6.38469 0.00709841 1.00905
HEad  -65.917 0.823701 5.87845
LeftShoulder1  -1.94126e-019 -3.10601e-018 -2.51263e-017
LeftArm  -13.7111 26.6272 -82.0608
LeftForeArm  32.0851 -15.2207 -2.43811
LeftHand  -0.376975 -0.777769 7.12775
RightShoulder  -4.96962e-017 0 -2.36833e-017
RightArm  -28.154 -24.6124 75.9041
RightForeArm  57.0535 13.62 1.30429
RightHand  -0.339431 -1.16845 -9.32406
LeftUpLeg  -8.17073 2.87592 0.876596
LeftLeg  6.04569 13.5067 0.551571
LeftFoot  3.5962 -0.0212077 0.986952
LeftToes  -17.8735 1.48347e-006 1.01831e-007
57
root  -12.1202 34.5945 -18.2576 -170.144 1.02789 179.741
RightUpLeg  -8.13285 -13.7576 -0.0568326
RightLeg  6.20544 -1.34481 -0.0640066
RightFoot  2.22342 0.011509 0.0886603
RightToes  -22.2399 -0.0877613 -0.193248
Spine  -3.14227 -0.0482102 0.207346
Spine1  -6.38615 0.000876256 0.986441
HEad  -65.9194 0.842018 5.9031
LeftShoulder1  -1.94126e-019 -3.10601e-018 -2.51263e-017
LeftArm  -13.6801 26.6157 -82.0577
LeftForeArm  32.1697 -15.1881 -2.43264
LeftHand  -0.378421 -0.890109 7.15468
RightShoulder  -4.96962e-017 0 -2.36833e-017
RightArm  -28.0769 -24.6472 75.8781
RightForeArm  57.0856 13.6177 1.3039
RightHand  -0.33941 -1.19602 -9.32353
LeftUpLeg  -8.15738 2.87881 0.886966
LeftLeg  6.02173 13.5201 0.5465
LeftFoot  3.63378 -0.0218428 0.996825
LeftToes  -17.9574 1.48347e-006 1.01831e-007
58
root  -12.1146 34.5959 -18.2562 -170.146 1.0401 179.746
RightUpLeg  -8.12591 -13.7544 -0.0434273
RightLeg  6.18673 -1.3435 -0.0630647
RightFoot  2.2385 0.0115244 0.0884399
RightToes  -22.2245 -0.0872335 -0.192731
Spine  -3.14249 -0.0505886 0.192583
Spine1  -6.38735 -0.00228319 0.95785
HEad  -65.9114 0.849831 5.97816
LeftShoulder1  -1.94126e-019 -3.10601e-018 -2.51263e-017
LeftArm  -13.6439 26.6164 -82.051
LeftForeArm  32.1567 -15.211 -2.43462
LeftHand  -0.379988 -0.813434 7.1226
RightShoulder  -4.96962e-017 0 -2.36833e-017
RightArm  -27.9981 -24.6789 75.862
RightForeArm  57.0609 13.6216 1.30206
RightHand  -0.340017 -1.14678 -9.30422
LeftUpLeg  -8.14448 2.86442 0.900211
LeftLeg  5.9994 13.5425 0.540333
LeftFoot  3.65758 -0.0223027 1.00397
LeftToes  -17.9567 1.48347e-006 1.01831e-007
